<?xml version="1.0" encoding="utf-8"?>
<!-- Generator: Adobe Illustrator 14.0.0, SVG Export Plug-In . SVG Version: 6.00 Build 43363)  -->
<!DOCTYPE svg PUBLIC "-//W3C//DTD SVG 1.1//EN" "http://www.w3.org/Graphics/SVG/1.1/DTD/svg11.dtd">
<svg version="1.1" xmlns="http://www.w3.org/2000/svg" xmlns:xlink="http://www.w3.org/1999/xlink" x="0px" y="0px"
	 width="566.88px" height="566.88px" viewBox="0 0 566.88 566.88" enable-background="new 0 0 566.88 566.88" xml:space="preserve">
<g id="Text_Shape_1_">
	<g id="Arabian_Tent_copy">
		<g>
			<path fill-rule="evenodd" clip-rule="evenodd" d="M76.251,325.474h-1.573l-12.19,37.178h-5.748v1.371H69.8v-1.371h-5.537
				l3.978-12.129h11l4.498,12.129h-6.592v1.371h17.69v-1.371h-4.799L76.251,325.474z M68.635,349.151l4.769-14.371l5.301,14.371
				H68.635z M133.387,362.757c-1.442,0-2.465-0.374-3.072-1.123c-0.606-0.748-0.909-2.026-0.909-3.834v-5.748
				c0-1.934-0.708-3.63-2.123-5.089c-1.416-1.459-3.467-2.399-6.157-2.821v-0.316c2.32-0.527,4.148-1.48,5.484-2.86
				c1.335-1.38,2.004-3.213,2.004-5.498c0-1.178-0.22-2.298-0.66-3.361s-1.099-2.048-1.977-2.953
				c-0.879-0.905-2.092-1.622-3.639-2.149c-1.547-0.527-3.322-0.791-5.326-0.791h-15.926v1.371h5.063v35.068h-5.063v1.371h15.609
				v-1.371h-5.063v-18.035h5.906c2.126,0,3.722,0.677,4.786,2.03c1.063,1.354,1.595,3.023,1.595,5.01v6.17
				c0,1.266,0.232,2.355,0.698,3.27s1.09,1.6,1.873,2.057c0.782,0.457,1.568,0.787,2.36,0.989c0.791,0.201,1.617,0.303,2.479,0.303
				c1.916,0,3.752-0.304,5.511-0.911l-0.316-1.277C135.434,362.59,134.389,362.757,133.387,362.757z M118.384,343.245h-6.75v-15.662
				h4.957c1.16,0,2.179,0.247,3.059,0.738c0.878,0.492,1.56,1.151,2.043,1.978c0.483,0.826,0.844,1.714,1.081,2.663
				c0.238,0.949,0.356,1.942,0.356,2.979c0,1.107-0.066,2.07-0.198,2.888c-0.131,0.817-0.365,1.573-0.698,2.268
				c-0.334,0.694-0.822,1.226-1.464,1.595S119.333,343.245,118.384,343.245z M160.305,325.474h-1.573l-12.19,37.178h-5.748v1.371
				h13.061v-1.371h-5.537l3.978-12.129h11l4.498,12.129h-6.592v1.371h17.69v-1.371h-4.799L160.305,325.474z M152.689,349.151
				l4.769-14.371l5.301,14.371H152.689z M205.681,343.772v-0.316c2.32-0.438,4.227-1.38,5.722-2.821
				c1.494-1.441,2.241-3.207,2.241-5.3c0-2.864-0.98-5.102-2.94-6.71c-1.96-1.608-4.962-2.413-9.004-2.413h-16.559v1.371h5.063
				v35.068h-5.063v1.371h16.77c4.13,0,7.396-0.918,9.795-2.755s3.599-4.381,3.599-7.634c0-2.689-0.861-4.913-2.584-6.671
				C210.998,345.205,208.651,344.142,205.681,343.772z M195.688,327.583h5.59c1.318,0,2.448,0.229,3.388,0.686
				c0.94,0.458,1.652,1.091,2.136,1.898c0.483,0.809,0.831,1.657,1.042,2.545s0.316,1.868,0.316,2.939
				c0,2.162-0.471,3.916-1.411,5.261c-0.94,1.345-2.343,2.017-4.206,2.017h-6.855V327.583z M201.383,362.651h-5.695V344.3h6.855
				c2.25,0,3.911,0.805,4.983,2.413c1.072,1.608,1.608,3.827,1.608,6.657C209.135,359.558,206.551,362.651,201.383,362.651z
				 M222.633,327.583h5.063v35.068h-5.063v1.371h15.609v-1.371h-5.063v-35.068h5.063v-1.371h-15.609V327.583z M263.289,325.474
				h-1.573l-12.19,37.178h-5.748v1.371h13.061v-1.371h-5.537l3.978-12.129h11l4.498,12.129h-6.592v1.371h17.69v-1.371h-4.799
				L263.289,325.474z M255.673,349.151l4.769-14.371l5.301,14.371H255.673z M311.433,327.583h5.379v25.13l-16.115-26.501h-13.1
				v1.371h5.379v35.068h-5.379v1.371h12.445v-1.371h-5.379v-35.068h0.159c0,0.563,0.149,1.09,0.448,1.582l21.646,35.596h1.582
				v-37.178h5.379v-1.371h-12.445V327.583z M347.552,326.212l-0.633,15.504h1.371c0.387-4.288,1.354-7.576,2.9-9.861
				c1.916-2.848,4.412-4.271,7.488-4.271h3.375v35.068h-5.063v1.371h15.609v-1.371h-5.063v-35.068h3.375
				c3.076,0,5.572,1.424,7.488,4.271c1.547,2.285,2.514,5.573,2.9,9.861h1.371l-0.633-15.504H347.552z M419.715,355.954
				c-0.336,0.949-0.926,1.995-1.771,3.138c-1.728,2.373-4.557,3.56-8.486,3.56h-8.909v-17.719h4.904
				c1.758,0,3.252,0.933,4.482,2.795c0.387,0.598,0.721,1.433,1.002,2.505s0.422,1.855,0.422,2.347h1.371v-16.717h-1.371
				c0,0.492-0.141,1.274-0.422,2.347s-0.615,1.908-1.002,2.505c-1.248,1.898-2.742,2.848-4.482,2.848h-4.904v-15.979h9.534
				c2.719,0,4.731,0.914,6.039,2.742c0.512,0.703,0.939,1.45,1.283,2.241c0.345,0.791,0.579,1.406,0.702,1.846
				c0.124,0.439,0.256,1.012,0.397,1.714h1.371l-0.264-9.914h-29.61v1.371h5.063v35.068h-5.063v1.371h31.851l0.159-11.786h-1.371
				C420.358,353.766,420.049,355.005,419.715,355.954z M453.07,327.583h5.379v25.13l-16.116-26.501h-13.099v1.371h5.379v35.068
				h-5.379v1.371h12.445v-1.371H436.3v-35.068h0.158c0,0.563,0.149,1.09,0.449,1.582l21.646,35.596h1.582v-37.178h5.379v-1.371
				H453.07V327.583z M507.595,326.212h-34.488l-0.633,15.504h1.371c0.386-4.288,1.353-7.576,2.9-9.861
				c1.915-2.848,4.412-4.271,7.488-4.271h3.375v35.068h-5.063v1.371h15.609v-1.371h-5.063v-35.068h3.375
				c3.075,0,5.572,1.424,7.488,4.271c1.546,2.285,2.514,5.573,2.9,9.861h1.371L507.595,326.212z"/>
		</g>
	</g>
	<g id="Company_copy">
		<g>
			<path fill-rule="evenodd" clip-rule="evenodd" d="M188.365,393.534c-0.133,0.129-0.316,0.193-0.551,0.193
				c-0.273,0-0.641-0.085-1.102-0.258c-1.008-0.366-2.102-0.551-3.281-0.551c-0.813,0-1.613,0.127-2.402,0.381
				c-0.789,0.255-1.523,0.635-2.203,1.143s-1.277,1.109-1.793,1.805s-0.922,1.515-1.219,2.455c-0.297,0.941-0.445,1.943-0.445,3.006
				c0,1.32,0.229,2.535,0.686,3.645s1.064,2.025,1.822,2.748c0.758,0.724,1.615,1.283,2.572,1.682s1.951,0.598,2.982,0.598
				c1.18,0,2.273-0.184,3.281-0.551c0.461-0.172,0.828-0.258,1.102-0.258c0.164,0,0.309,0.041,0.434,0.123s0.221,0.17,0.287,0.264
				s0.146,0.234,0.24,0.422h0.516v-5.52h-0.516c-0.281,1.156-0.723,2.148-1.324,2.977c-0.18,0.25-0.367,0.473-0.563,0.668
				s-0.451,0.396-0.768,0.604c-0.316,0.208-0.703,0.369-1.16,0.486s-0.967,0.176-1.529,0.176c-1.703,0-3.016-0.68-3.938-2.039
				s-1.383-3.367-1.383-6.023c0-2.664,0.463-4.693,1.389-6.088s2.236-2.092,3.932-2.092c0.563,0,1.072,0.059,1.529,0.176
				s0.844,0.279,1.16,0.486c0.316,0.208,0.572,0.408,0.768,0.604s0.383,0.418,0.563,0.668c0.602,0.828,1.043,1.82,1.324,2.977h0.516
				v-5.52h-0.516C188.634,393.2,188.498,393.405,188.365,393.534z M222.844,396.247c-0.516-0.695-1.113-1.297-1.793-1.805
				s-1.414-0.888-2.203-1.143c-0.789-0.254-1.59-0.381-2.402-0.381s-1.613,0.127-2.402,0.381c-0.789,0.255-1.523,0.635-2.203,1.143
				s-1.277,1.109-1.793,1.805s-0.922,1.515-1.219,2.455c-0.297,0.941-0.445,1.943-0.445,3.006c0,1.32,0.229,2.535,0.686,3.645
				s1.064,2.025,1.822,2.748c0.758,0.724,1.615,1.283,2.572,1.682s1.951,0.598,2.982,0.598s2.025-0.199,2.982-0.598
				s1.814-0.958,2.572-1.682c0.758-0.723,1.365-1.639,1.822-2.748s0.686-2.324,0.686-3.645c0-1.063-0.148-2.064-0.445-3.006
				C223.766,397.762,223.359,396.942,222.844,396.247z M220.383,407.731c-0.922,1.359-2.234,2.039-3.938,2.039
				s-3.016-0.68-3.938-2.039s-1.383-3.367-1.383-6.023c0-2.664,0.463-4.693,1.389-6.088s2.236-2.092,3.932-2.092
				s3.006,0.697,3.932,2.092s1.389,3.424,1.389,6.088C221.766,404.364,221.305,406.372,220.383,407.731z M252.158,406.141
				l-4.08-12.894h-5.65v0.609h2.391v15.586h-2.391v0.609h5.531v-0.609h-2.391v-15.586h0.094c0,0.242,0.047,0.504,0.141,0.785
				l4.98,15.738h0.669l5.324-15.943l0.065,0.006v15h-2.25v0.609h6.938v-0.609h-2.25v-15.586h2.25v-0.609h-5.086L252.158,406.141z
				 M290.986,394.466c-0.497-0.375-1.115-0.672-1.856-0.891c-0.74-0.219-1.478-0.328-2.21-0.328h-7.399v0.609h2.25v15.586h-2.25
				v0.609h6.937v-0.609h-2.25v-6.281h3.989c1.457,0,2.66-0.402,3.609-1.207c0.95-0.805,1.425-1.879,1.425-3.223
				C293.231,397.028,292.483,395.606,290.986,394.466z M290.418,399.862c-0.047,0.387-0.129,0.752-0.246,1.096
				s-0.271,0.629-0.463,0.855s-0.438,0.406-0.738,0.539s-0.654,0.199-1.061,0.199h-3.703v-8.695h2.203
				c0.867,0,1.516,0.109,1.945,0.328c0.414,0.211,0.768,0.488,1.061,0.832s0.514,0.721,0.662,1.131s0.254,0.809,0.316,1.195
				s0.094,0.787,0.094,1.201C290.489,399.036,290.465,399.476,290.418,399.862z M316.917,392.919h-0.699l-5.418,16.523h-2.555v0.609
				h5.805v-0.609h-2.461l1.768-5.391h4.89l1.999,5.391h-2.93v0.609h7.862v-0.609h-2.133L316.917,392.919z M313.533,403.442
				l2.119-6.387l2.355,6.387H313.533z M352.955,393.856h2.391v11.169l-7.162-11.778h-5.822v0.609h2.391v15.586h-2.391v0.609h5.531
				v-0.609h-2.391v-15.586h0.07c0,0.25,0.066,0.484,0.199,0.703l9.621,15.82h0.703v-16.523h2.391v-0.609h-5.531V393.856z
				 M386.157,393.247v0.609h2.484l-3.896,7.796l-4.247-7.796h2.823v-0.609h-7.875v0.609h2.238l5.027,9.258v6.328h-2.25v0.609h6.938
				v-0.609h-2.25v-6.947l4.291-8.639h2.133v-0.609H386.157z"/>
		</g>
	</g>
</g>
<g id="Line_right_1_" enable-background="new    ">
	<g id="Line_right">
		<g>
			<rect x="403.2" y="401.04" fill-rule="evenodd" clip-rule="evenodd" width="137.28" height="1.2"/>
		</g>
	</g>
</g>
<g id="Line_left_1_" enable-background="new    ">
	<g id="Line_left">
		<g>
			<rect x="22.8" y="401.04" fill-rule="evenodd" clip-rule="evenodd" width="141.12" height="1.2"/>
		</g>
	</g>
</g>
<g id="Back_1_" enable-background="new    ">
	<g id="Back">
		<g>
			<path fill-rule="evenodd" clip-rule="evenodd" fill="#EBD79C" d="M191.913,250.382c-1.787,0-7.112-0.841-7.532,0.21
				c-0.42,1.051-0.525,5.781-0.525,5.781l-3.678,7.006l1.051,8.583l6.306,10.86l9.809-10.86l0.876-7.181
				C198.218,264.78,193.699,250.382,191.913,250.382z M220.376,244.987c-1.139-1.839-2.978-6.656-2.978-6.656
				s-0.963-13.225-3.854-14.188s-6.656,1.401-6.656,1.401l-6.656,11.385l9.809,15.063c0,0,1.236,19.641,4.029,18.392
				c3.332-1.49-0.266-11.476,1.313-14.292C218.229,251.012,220.684,246.514,220.376,244.987z M226.074,244.987
				c2.233,1.445,6.131-1.401,6.131-1.401s-0.876-16.115,7.794-24.917c1.314-1.445-0.438-4.16-0.438-4.16l-3.328-11.736
				c0,0-3.854-7.838-4.905-6.656s-1.576,2.978-1.576,2.978l-7.532,4.379l-3.153,6.832l3.503,7.532
				C222.571,217.837,225.417,244.067,226.074,244.987z M247.887,215.21l3.328-0.175l1.576-0.525c0,0-0.438-14.056,4.554-15.764
				c-1.576-1.708-4.904-0.832-4.904-0.832s-0.088-16.509,0.175-20.187c-0.92-8.276-7.926-4.204-8.058-3.153
				c-0.131,1.051-5.78,5.605-5.78,5.605l-1.927,11.21l7.882,7.531L247.887,215.21z M261.595,191.563c0,0,1.621-0.044,2.277-0.175
				c2.759-0.395,3.416-13.794,8.933-21.939c1.182-2.102-5.342-15.151-7.707-15.545s-6.656,1.927-6.656,1.927l-1.051,8.933
				l3.678,6.656L261.595,191.563z M276.18,158.809c-0.394,2.233-0.175,6.919,0.35,7.707c0.526,0.789,6.481-1.751,6.481-1.751
				l3.328,0.351c0,0,3.372,0.438,4.028-0.876c0.657-1.314,1.139-5.036,1.401-5.956c0.263-0.919-2.496-3.065-1.576-5.43
				c0.525-1.314,0.175-2.803,0.175-2.803l2.452-5.605l-3.854-13.487l-5.079-3.503l-9.634,13.487l-0.876,13.312
				C273.377,154.254,276.574,156.576,276.18,158.809z M298.776,177.726c0.788,0.919,2.408,13.137,4.904,12.086
				c3.021-2.365-0.481-8.452,6.875-19.355c1.183-3.678-2.146-11.298-2.146-11.298s-1.927-7.532-4.029-7.006
				c-2.102,0.525-7.882,6.306-7.882,6.306l-0.175,11.561C296.324,170.019,296.673,176.018,298.776,177.726z M291.025,189.637
				l0.175-11.035c0,0,0-8.583-5.78-8.583c-5.78,0-10.641,7.182-10.641,7.182s-1.182,6.875-2.627,8.583
				c-2.365,9.196,8.057,8.276,7.532,17.866c-0.131,1.577,3.854,10.685,3.854,10.685s4.642,0.219,4.904-4.904
				s4.16-13.181,6.131-16.99C292.864,192.439,291.025,189.637,291.025,189.637z M338.949,239.557
				c0.132-22.727,7.226-20.844,7.356-22.946c0.132-2.102-2.102-18.392-2.102-18.392s-1.708-5.343-3.679-1.401
				c-1.97,3.941-7.575,0.919-7.575,0.919l-5.036-6.875l-0.525-10.685l-1.883-8.583c0,0-0.438-3.328-4.116-1.62
				c-3.679,1.708-9.239,8.626-9.239,8.626l0.7,13.663l5.78,6.831l1.227,12.437c0,0,1.357,5.955,8.582,2.802
				c0.657-1.445,5.255,3.503,5.255,3.503S336.453,241.134,338.949,239.557z M265.099,195.592c-3.941,0.525-5.955,6.831-5.955,6.831
				l1.226,8.408l4.379,5.956l2.978,21.019l7.576-20.362l-3.197-18.348C272.105,199.095,272.849,192.571,265.099,195.592z
				 M315.854,217.662c0.131-0.394,1.533-0.217,0.438-3.328c-0.92-3.547-4.992-13.399-4.992-13.399s-0.088-3.897-4.291-6.394
				c-4.335-3.021-3.46,0.263-5.431,0.526c-1.051-0.263-7.356,8.057-7.356,8.057l-2.627,9.809l6.131,11.911l4.729,19.968
				c0,0,5.036-1.139,4.905-2.978C306.833,222.129,314.671,220.158,315.854,217.662z M320.908,221.866
				c-2.365,0.657-7.532,15.589-7.532,15.589l0.176,5.78c0,0,5.999,4.861,6.655,7.356c0.657,2.496,8.058-10.159,8.058-10.159
				s-1.27-13.837-1.927-16.465C325.155,219.37,323.272,221.209,320.908,221.866z M366.047,237.63c0,0-2.628-7.707-2.628-9.634
				s-3.327-7.182-3.327-7.182l-4.029-0.525l-6.48,6.831c0,0-1.664,7.138-0.876,11.21c-0.395,1.051,2.627,8.495,11.035,10.86
				c1.708-2.233,5.386-4.686,5.78-5.605c0.394-0.92-1.357-2.321-1.095-3.109S366.047,237.63,366.047,237.63z M382.358,246.739
				c-1.839-2.496-3.328-2.671-4.904,3.503c-4.467,2.89-6.306,9.458-6.306,9.458l0.701,6.306l6.306,6.656l8.933-4.729l3.854-10.51
				C390.941,257.423,383.935,248.709,382.358,246.739z M344.502,244.067c-3.24-2.189-4.991-1.445-9.108,3.197
				c-4.116,4.642,0,19.618,0,19.618l-0.175,4.204c0,0-1.752,1.839-0.7,5.78c1.051,3.941,1.751,10.685,2.276,12.086
				s3.591,1.927,4.204,2.803s3.854-9.634,3.854-9.634s1.927-9.809,5.605-12.612c3.678-2.803,4.991-1.927,5.43-5.255
				C355.625,263.116,351.859,248.797,344.502,244.067z M291.945,244.637c0.131-2.89-1.928-18.742-1.928-18.742
				s-1.226-11.561-7.531-4.729c-1.314,1.708-6.831,6.306-6.831,6.306l-2.102,15.939l9.634,14.188l4.729,0.35
				c0,0,3.197-5.824,4.904-8.057C295.973,246.344,291.813,247.527,291.945,244.637z M306.132,248.052
				c-7.795-0.35-9.459,2.627-9.108,5.868c0.351,3.241-1.401,12.962-1.401,12.962s-1.664,2.803-2.452,4.029s-1.139,4.029,0.876,7.532
				s3.503,14.626,5.167,16.553s2.189,1.927,3.941,1.664c3.503,0.175,4.554-16.64,10.51-25.223c4.642-7.356,0.087-13.837,0-16.29
				C313.577,252.694,313.927,248.403,306.132,248.052z M263.084,246.651c-3.503,0.701-5.78,6.832-7.269,7.62
				c0.087,4.379,2.277,12.962,2.277,12.962s1.927,6.48,2.277,7.707c0.351,1.226,2.803,5.955,2.803,5.955l4.029-6.13l6.656-7.356
				l1.051-1.664c0,0,2.19-2.015,2.803-2.54c-0.175-2.89-5.868-11.21-7.006-12.612C269.565,249.191,265.273,246.125,263.084,246.651z
				 M230.365,247.965c-5.78,1.839-5.517,7.707-5.517,7.707l-2.453,7.532l1.401,9.984l5.43,7.882l4.204,7.532
				c0,0,2.89-12.349,3.854-14.713s3.416-3.766,3.591-6.656C240.962,261.452,235.795,247.176,230.365,247.965z M259.622,237.981
				l0.088-11.386c0,0,0.875-4.948-3.065-4.948s-11.385,0.745-11.385,0.745s-4.248,16.552-4.905,18.917
				c-2.89,7.751,4.204,8.89,4.204,8.89s4.248-1.795,5.43-2.058c3.285,0,5.693-4.248,5.956-4.905
				C260.805,244.155,259.622,237.981,259.622,237.981z"/>
		</g>
	</g>
</g>
<g id="Front_1_" enable-background="new    ">
	<g id="Front">
		<g>
			<path fill-rule="evenodd" clip-rule="evenodd" fill="#BF9535" d="M279.313,155.572c1.04,1.686,2.065,8.413,2.065,8.413
				s0.383,3.897,3.389,3.897c3.005,0,3.753-3.503,3.753-3.503s0.007-8.992,0.816-10.777c1.334-3.211,3.905-1.183,6.448-3.662
				c4.2-4.095,0.085-14.115,0.085-14.115s-3.726-11.571-10.057-11.496c-6.324,0-13.284,11.958-13.81,13.008
				s-3.729,9.306-0.107,16.295C274.439,156.706,278.272,153.886,279.313,155.572z M285.083,130.293
				c3.479,0.263,6.238,11.947,5.776,14.525c-0.462,2.578-5.509,1.288-7.484,6.248c-2.895-3.185-6.142-0.316-6.951-3.292
				C275.09,141.121,280.423,130.95,285.083,130.293z M240.503,199.384c0.946,1.787-0.14,9.038,1.121,13.663
				c0.42,1.681,0.946,5.149,3.678,5.149s3.293-3.573,3.293-3.573s-0.28-9.932,0.455-11.823c0.736-1.892,1.27-3.853,3.582-6.481
				c3.818-4.339,0.219-16.403,0.219-16.403s-1.838-5.31-9.3-5.31s-9.792,5.529-9.792,5.529s-2.733,10.521,0.491,15.063
				C236.562,198.456,239.557,197.598,240.503,199.384z M240.803,180.47c0,0,7.122-1.884,7.722,4.271
				c0.525,11.635-1.379,8.404-2.505,10.956c-2.102-3.678-5.769-2.065-6.294-2.516C235.372,184.248,240.803,180.47,240.803,180.47z
				 M290.972,190.67c3.529-4.011,1.533-9.573,1.533-9.573s-1.839-9.383-9.301-9.383s-10.449,8.157-10.449,8.157
				s-2.26,6.554,0.964,11.096c1.787,2.601,4.204,0.718,5.543,5.789c0.946,1.787,0.044,9.046,1.02,15.877
				c0.45,0.976,1.321,2.147,3.228,2.297c2.732,0,3.144-2.823,3.144-2.823s-1.365-13.512-0.052-17.059
				C287.916,191.502,288.66,193.298,290.972,190.67z M282.652,190.705c-2.627-5.123-4.282-0.902-5.018-4.055
				s2.023-9.502,5.675-9.634c2.995,0,4.107,5.912,3.688,8.644C286.576,188.393,283.703,187.421,282.652,190.705z M311.177,191.625
				c2.313,3.258,5.255,1.244,6.201,3.03c0.945,1.786,1.057,14.845,1.057,14.845s0.721,4.887,3.453,4.887s3.293-3.573,3.293-3.573
				s0.133-8.13,0.193-11.298c-0.541-6.396,1.724-6.218,1.724-6.218s3.635-1.878,3.635-6.683c0-2.477-3.021-13.924-9.808-13.849
				c-6.186-0.075-9.529,6.562-9.529,6.562S307.503,185.881,311.177,191.625z M321.349,178.33c1.832-0.15,2.925,4.654,4.156,7.462
				c-2.024,3.85-3.069,1.614-4.213,4.913c-1.516-1.922-3.307-1.033-5.543-2.084C315.013,185.468,316.515,178.33,321.349,178.33z
				 M255.711,242.036c3.819-4.339,1.139-12.462,0.087-13.908c-1.051-1.445-6.831-5.835-12.453-5.835
				c-7.462,0-8.478,6.843-8.478,6.843s-2.26,5.766,0.963,11.753c2.313,3.258,4.362,2.11,5.413,5.526s0.832,11.692,0.963,13.137
				c0.131,1.445,0.946,3.574,3.678,3.574c2.733,0,3.03-2.654,3.03-2.654s-0.28-11.255,0.456-13.147
				C250.529,244.344,253.673,244.937,255.711,242.036z M251.998,237.157c-0.42,2.733-3.109,0.594-6.971,6.217
				c-1.629-1.471-3.757-3.913-4.756-6.803c-0.079-6.043-0.473-8.583,4.361-8.583C250.124,228.776,253.601,233.505,251.998,237.157z
				 M205.428,225.629c-5.36,0-8.426,6.659-8.426,6.659s-3.101,6.16,0.123,10.702c2.732,3.994,5.044,4.396,6.201,7.76
				c1.892,4.414-0.666,16.027-0.14,17.498c1.472,2.838,1.734,1.997,5.308,3.468c5.359-0.42,3.923-3.153,3.923-3.153
				s-2.172-8.933-1.542-12.296c1.892-9.038,3.924-3.328,6.131-8.057c2.032-2.763-3.591-15.484-3.591-15.484
				S210.683,225.734,205.428,225.629z M211.584,243.332c-0.315,5.254-1.533,1.34-3.424,4.388c-2.732-2.733-4.361-6.052-6.463-9.835
				c-0.736-3.153-0.999-6.297,3.836-6.297C208.265,231.903,212.005,240.599,211.584,243.332z M295.617,242.955
				c3.161-3.813-1.227-12.331-1.227-12.331s-4.334-9.514-11.796-9.514c-5.541,0-8.347,7.894-8.347,7.894s-2.523,9.838-0.087,14.118
				c2.312,3.258,4.083,2.181,5.028,5.413c1.254,2.337,1.329,5.942,1.629,6.918c0.3,0.976,2.155,3.693-0.322,5.119
				c-0.826,0.9-0.193,3.165-0.193,3.165s1.922,0.871,3.303,5.525c3.784,0,4.664,0.537,5.883-3.536
				c0.919-3.022-1.835-11.429-0.259-15.765C290.281,247.071,293.304,245.583,295.617,242.955z M286.115,244.83
				c-1.696-5.307-6.855-0.104-7.121-6.289c-0.736-3.153,1.76-11.341,3.836-11.21c4.834,0,8.443,8.539,8.022,11.271
				C290.432,241.335,289.057,242.229,286.115,244.83z M326.228,246.696c1.952-2.402,2.644-2.998,3.47-4.575
				c2.466-2.796-0.775-10.011-1.414-13.467c-0.3-0.826-1.407-6.755-8.118-6.755c-5.359-0.075-9.135,6.448-9.135,6.448
				s-3.668,8.093,0.307,13.461c2.312,3.258,5.002,4.255,6.022,7.543c3.4,6.423,1.433,16.967,1.433,16.967s1.386,3.151,4.119,3.151
				c2.731,0,3.537-6.784,3.537-6.784S323.676,249.924,326.228,246.696z M325.008,239.259c-0.421,1.606-1.363,1.374-3.03,3.731
				c-2.267-2.522-3.382-4.355-6.444-5.106c-0.736-3.153,1.403-10.572,5.262-10.422C322.927,228.514,325.354,235.926,325.008,239.259
				z M370.438,243.159c3.219-3.664-2.802-15.484-2.802-15.484s-2.627-4.935-10.089-4.935c-5.811,0-9.398,11.459-9.398,11.459
				s-2.522,4.714,0.701,9.257c2.312,3.258,7.356,4.667,8.303,6.454c1.246,3.063-0.914,12.014,0.063,15.617
				c0.3,0.826,0.401,3.554,3.134,3.554s2.898-3.686,2.898-3.686s-0.692-13.613,0.719-15.955
				C364.852,247.024,368.126,245.787,370.438,243.159z M364.885,238.675c-0.903,1.898-2.087,3.015-4.737,5.663
				c-3.919-3.273-6.254-3.716-6.464-5.593c-0.735-3.153,2.286-9.99,5.544-10.291C363.462,228.68,365.081,236.768,364.885,238.675z
				 M185.885,255.529c-6.937,0-9.135,5.003-9.135,5.003s-2.681,8.524,0.543,13.067c2.312,3.258,3.179,3.188,4.125,4.975
				s1.252,15.371,1.252,15.371s1.577,1.892,4.309,1.892s2.768-1.472,2.768-1.472s0.245-9.669,0.981-11.561
				c0.735-1.892,2.452-3.328,4.764-5.955c3.818-4.339-0.385-14.749-0.385-14.749S193.347,255.529,185.885,255.529z M190.99,271.576
				c-0.42,2.732-1.48,0.762-3.688,5.702c-1.576-5.78-5.07-5.106-5.806-8.259s0.762-7.742,4.23-7.532
				C190.561,261.487,191.621,268.003,190.99,271.576z M228.69,252.691c-7.459,0.198-10.422,8.499-10.422,8.499
				s-1.367,6.107,0.385,10.754c1.577,1.997,3.626,2.269,5.202,6.262c0.946,1.787,1.703,14.712,1.388,15.553
				c3.048,0.945,2.102,2.312,4.834,2.312c3.153-0.525,2.558-3.468,2.558-3.468s-0.757-10.324,0.399-13.477
				c0.84-2.837,1.296-2.802,3.188-5.956c2.452-6.966,2.11-9.704,0.534-12.856C235.81,258.737,232.185,252.56,228.69,252.691z
				 M232.377,266.321c-1.156,7.567-2.978,5.202-3.923,8.46c-1.997-4.099-2.89-3.267-4.572-6.84c-0.736-3.152,0.657-8.767,4.44-8.872
				C230.214,259.07,233.428,262.118,232.377,266.321z M262.448,252.873c-7.462,0-7.161,4.5-7.161,5.131
				c-1.72,8.751-2.968,12.498,0.256,17.041c2.312,3.258,4.392,4.95,5.338,6.737c1.892,2.732-0.564,12.452,0.381,14.554
				c0.42,0.735,3.26,0.792,5.992,0.792c2.733,0,2.214-9.278,2.214-9.278s-2.592-7.226-1.856-9.117
				c0.735-1.892,5.083-5.43,7.396-8.057c3.819-4.339-0.963-10.492-0.963-10.492S269.91,252.873,262.448,252.873z M263.583,275.254
				c-1.471-0.525-2.706-1.48-3.862-4.528c-0.525-5.99,0.156-7.087,0.997-11.606c1.406-1.754,9.684,1.5,9.999,6.019
				C270.716,268.502,267.892,269.369,263.583,275.254z M304.514,250.799c-10.404,0-11.105,8.288-11.105,8.288
				s-0.504,7.914,2.72,12.457c2.313,3.258,5.213,10.209,5.213,10.209l0.175,11.561c0,0,0.946,3.573,3.678,3.573
				c2.733,0,3.293-3.573,3.293-3.573s-1.226-3.363,0.981-11.561s2.352-8.846,4.663-11.473c3.819-4.339,0.114-12.383,0.114-12.383
				S311.976,250.799,304.514,250.799z M309.744,264.014c-0.421,2.732-3.978,5.205-5.5,10.431c-0.69-5.349-5.429-5.842-5.534-11.937
				c-0.735-3.153,0.71-6.744,5.544-6.744S310.164,261.281,309.744,264.014z M339.755,246.911
				c-8.617-1.682-10.106,5.687-10.106,5.687s-3.075,6.081,1.515,14.302c2.313,3.258,3.652,3.95,5.544,6.788
				c2.207,2.732,1.541,20.152,1.541,20.152s-0.42,3.258,2.313,3.258c2.732-0.42,3.293-0.841,3.503-3.783
				c0.211-2.942-0.963-18.812,0.508-21.544c1.262-3.468,4.686-3.854,6.998-6.481c2.662-4.444-0.569-10.229-0.569-10.229
				S349.214,248.698,339.755,246.911z M347.068,261.198c-0.42,2.733-4.107,1.682-6.84,7.147c-2.522-1.577-4.729-3.688-5.675-7.996
				c-0.525-6.937,0.578-8.058,5.412-8.058C344.8,252.291,347.489,258.466,347.068,261.198z M387.721,256.456
				c-5.255-4.52-5.373-7.173-9.693-7.022c-6.304,0.047-7.821,6.633-7.821,6.633s-3.83,9.167-0.606,13.709
				c2.312,3.258,2.799,2.832,4.901,7.562c0.945,1.787,0.91,15.162,0.91,15.162s1.682,2.732,4.414,2.732s2.348-3.363,2.348-3.363
				s-0.358-13.111-0.048-15.118c0.867-5.596,6.493-5.855,8.598-8.651C393.281,264.811,388.247,257.086,387.721,256.456z
				 M385.462,264.088c-6.727,1.786-5.458,6.4-6.193,8.082c-2.207-2.102-1.787-6.003-5.15-7.054c-0.945-3.994,0.967-9.1,5.065-9.1
				C381.391,256.016,385.882,261.355,385.462,264.088z M221.067,226.29c0.757,1.429,0.898,15.059,0.898,15.059
				s0.757,2.858,2.943,2.858c1.285,0,3.479-1,3.554-2.727s-0.404-15.272,0.185-16.785c1.64-4.816,5.193-4.287,8.094-7.589
				c4.181-5.648-1.915-13.975-1.915-13.975s-3.243-4.894-9.212-4.894c-6.72-0.075-10.292,6.131-10.292,6.131
				s-5.265,9.171-1.211,16.828C217.863,225.249,220.31,224.109,221.067,226.29z M226.522,203.844c3.868,0,6.413,6.91,6.076,9.096
				c-1.76,1.087-6.007,4.652-7.202,8.467c-1.648-3.369-5.517-3.215-6.105-5.737C218.251,210.145,222.654,203.844,226.522,203.844z
				 M276.28,216.711c2.175-2.509-1.784-15.307-1.784-15.307s-2.436-6.02-9.606-5.795c-5.969,0-8.885,7.051-8.885,7.051
				s-2.411,6.961,0.338,11.499c3.013,4.596,6.01,6.219,6.31,6.97c0.826,5.33-0.303,17.189-0.303,17.189s3.578,4.829,4.65,4.829
				c2.186,0,1.715-1.545,1.715-1.545s-0.25-15.841,0.916-18.838C271.271,219.297,274.205,221.14,276.28,216.711z M267.526,217.833
				c-0.401-6.866-5.47-2.082-6.931-7.211c-0.589-2.522,1.693-9.93,5.561-9.93s5.625,9.932,5.288,12.118
				S270.3,217.749,267.526,217.833z M313.344,215.792c1.929-1.82-2.084-13.412-2.084-13.412s-3.468-7.427-9.438-7.427
				s-9.41,7.708-9.41,7.708s-1.913,9.526,0.666,13.16c1.85,2.606,3.704,2.493,4.461,3.922c1.732,2.255,0.879,13.622,2.005,19.477
				c0.075,0.75,1.319,4.96,4.331,5.186c2.187,0,2.71-1.958,2.71-1.958s-1.523-18.013-0.172-20.34
				C308.741,217.452,310.444,218.644,313.344,215.792z M302.582,217.017c0,0-4.521-3.995-5.11-6.517
				c-0.589-2.522,1.093-9.809,4.961-9.809c3.867,0,5.567,9.744,5.231,11.93C304.474,213.681,302.582,217.017,302.582,217.017z
				 M331.417,214.938c1.85,2.606,2.991,0.991,3.823,2.871c0.757,1.429-1.542,7.259-0.04,18.144c0.601,1.652,2.221,5.843,4.406,5.843
				c2.187,0,2.635-2.858,2.635-2.858s-2.112-14.811,1.929-19.101c0.589-1.514,3.224,0.404,7.325-4.701
				c3.055-3.472,0.618-9.865-0.733-12.267c-1.351-2.402-3.73-6.996-9.699-6.996c-6.271,0.076-10.011,6-10.536,7.051
				C330.001,203.974,328.838,211.304,331.417,214.938z M341.502,201.479c3.868,0,5.756,6.516,5.42,8.702
				c-0.411,3.237-4.128,3.129-6.076,4.64c-2.774-5.471-4.034-1.18-4.698-4.978C335.109,205.219,337.635,201.479,341.502,201.479z
				 M296.55,171.182c3.334,0.67,1.973,2.141,1.44,4.447c-0.364,1.576-0.491,8.854-0.491,8.854s0.138,5.88,3.074,5.88
				c3.313,0.075,3.16-1.02,3.16-1.02s0.309-12.032,0.897-13.546c0.588-1.513,2.338-1.336,4.303-3.331
				c1.479-1.501,1.594-5.004,1.594-5.004s-1.628-14.033-6.547-14.033c-3.664,0-7.739,4.385-8.49,4.986
				C293.839,160.218,292.887,169.482,296.55,171.182z M303.108,160.032c0.601,0,0.352,2.678,1.253,4.329
				c0.901,1.652-0.559,5.034-0.559,5.034s-1.02-2.106-3.647-2.482C299.48,162.185,302.507,160.032,303.108,160.032z
				 M257.904,172.071c0.757,1.505-0.659,8.48,0.767,17.488c0.15,0.75,0.494,2.747,2.68,2.747s3.16-1.958,3.16-1.958
				s-1.317-13.021,0.127-15.78c1.816-3.148,3.634,0.296,7.306-3.765c2.357-2.821,0.224-7.814-0.677-8.64
				c0.3-1.051-1.565-7.503-7.823-7.503c-6.645,0-8.922,4.721-8.922,4.721s-3.189,5.918-0.61,9.744
				C255.086,170.742,257.147,170.566,257.904,172.071z M263.266,159.982c1.897,0.131,3.954,5.02,3.618,7.322
				c-1.763-0.026-3.017,0.303-3.618,0.998c-0.394-2.89-3.471-1.286-4.191-3.022C259.8,162.098,259.398,159.982,263.266,159.982z"/>
		</g>
	</g>
</g>
</svg>
